<?xml version="1.0" encoding="utf-8"?>
<!-- Generator: Adobe Illustrator 19.0.0, SVG Export Plug-In . SVG Version: 6.00 Build 0)  -->
<svg version="1.1" id="Layer_1" xmlns="http://www.w3.org/2000/svg" xmlns:xlink="http://www.w3.org/1999/xlink" x="0px" y="0px"
	 viewBox="0 0 1000 1000" style="enable-background:new 0 0 1000 1000;" xml:space="preserve">
<style type="text/css">
	.st0{fill:url(#XMLID_5_);}
	.st1{fill:url(#XMLID_6_);}
	.st2{fill:url(#XMLID_7_);}
	.st3{fill:url(#XMLID_9_);}
</style>
<linearGradient id="XMLID_5_" gradientUnits="userSpaceOnUse" x1="500" y1="25.1929" x2="500" y2="469.1178">
	<stop  offset="0" style="stop-color:#6ECBD7"/>
	<stop  offset="0.148" style="stop-color:#65BBD0"/>
	<stop  offset="0.2857" style="stop-color:#5CACCA"/>
	<stop  offset="0.3198" style="stop-color:#57A6C8"/>
	<stop  offset="0.398" style="stop-color:#4F9AC3"/>
	<stop  offset="0.4276" style="stop-color:#4C94C0"/>
	<stop  offset="0.4847" style="stop-color:#478DBD"/>
	<stop  offset="0.5628" style="stop-color:#3F80B7"/>
	<stop  offset="0.6173" style="stop-color:#3B7BB4"/>
	<stop  offset="0.664" style="stop-color:#3371AF"/>
	<stop  offset="0.7442" style="stop-color:#2763A9"/>
	<stop  offset="0.8262" style="stop-color:#1F59A4"/>
	<stop  offset="0.9103" style="stop-color:#1953A2"/>
	<stop  offset="1" style="stop-color:#1851A1"/>
</linearGradient>
<path id="XMLID_8_" class="st0" d="M473.2,34.8L307,226.9c-10.3,11.9-10.3,29,0,40.9l166.2,192.1c13.8,15.9,39.7,15.9,53.5,0
	L693,267.8c10.3-11.9,10.3-29,0-40.9L526.8,34.8C513,18.9,487,18.9,473.2,34.8z"/>
<linearGradient id="XMLID_6_" gradientUnits="userSpaceOnUse" x1="564.2928" y1="89.4858" x2="564.2928" y2="533.4106" gradientTransform="matrix(-1.346900e-010 -1 1 -1.346900e-010 -64.2929 1064.2928)">
	<stop  offset="0" style="stop-color:#6ECBD7"/>
	<stop  offset="0.148" style="stop-color:#65BBD0"/>
	<stop  offset="0.2857" style="stop-color:#5CACCA"/>
	<stop  offset="0.3198" style="stop-color:#57A6C8"/>
	<stop  offset="0.398" style="stop-color:#4F9AC3"/>
	<stop  offset="0.4276" style="stop-color:#4C94C0"/>
	<stop  offset="0.4847" style="stop-color:#478DBD"/>
	<stop  offset="0.5628" style="stop-color:#3F80B7"/>
	<stop  offset="0.6173" style="stop-color:#3B7BB4"/>
	<stop  offset="0.664" style="stop-color:#3371AF"/>
	<stop  offset="0.7442" style="stop-color:#2763A9"/>
	<stop  offset="0.8262" style="stop-color:#1F59A4"/>
	<stop  offset="0.9103" style="stop-color:#1953A2"/>
	<stop  offset="1" style="stop-color:#1851A1"/>
</linearGradient>
<path id="XMLID_4_" class="st1" d="M34.8,526.8L226.9,693c11.9,10.3,29,10.3,40.9,0l192.1-166.2c15.9-13.8,15.9-39.7,0-53.5
	L267.8,307c-11.9-10.3-29-10.3-40.9,0L34.8,473.2C18.9,487,18.9,513,34.8,526.8z"/>
<linearGradient id="XMLID_7_" gradientUnits="userSpaceOnUse" x1="610.5168" y1="155.3091" x2="610.5168" y2="599.234" gradientTransform="matrix(2.244830e-010 1 -1 2.244830e-010 1130.1162 -110.5168)">
	<stop  offset="0" style="stop-color:#6ECBD7"/>
	<stop  offset="0.148" style="stop-color:#65BBD0"/>
	<stop  offset="0.2857" style="stop-color:#5CACCA"/>
	<stop  offset="0.3198" style="stop-color:#57A6C8"/>
	<stop  offset="0.398" style="stop-color:#4F9AC3"/>
	<stop  offset="0.4276" style="stop-color:#4C94C0"/>
	<stop  offset="0.4847" style="stop-color:#478DBD"/>
	<stop  offset="0.5628" style="stop-color:#3F80B7"/>
	<stop  offset="0.6173" style="stop-color:#3B7BB4"/>
	<stop  offset="0.664" style="stop-color:#3371AF"/>
	<stop  offset="0.7442" style="stop-color:#2763A9"/>
	<stop  offset="0.8262" style="stop-color:#1F59A4"/>
	<stop  offset="0.9103" style="stop-color:#1953A2"/>
	<stop  offset="1" style="stop-color:#1851A1"/>
</linearGradient>
<path id="XMLID_2_" class="st2" d="M965.2,473.2L773.1,307c-11.9-10.3-29-10.3-40.9,0L540.2,473.2c-15.9,13.8-15.9,39.7,0,53.5
	L732.2,693c11.9,10.3,29,10.3,40.9,0l192.1-166.2C981.1,513,981.1,487,965.2,473.2z"/>
<linearGradient id="XMLID_9_" gradientUnits="userSpaceOnUse" x1="500" y1="-23.2077" x2="500" y2="420.7171" gradientTransform="matrix(1 0 0 -1 0 951.5994)">
	<stop  offset="0" style="stop-color:#6ECBD7"/>
	<stop  offset="0.148" style="stop-color:#65BBD0"/>
	<stop  offset="0.2857" style="stop-color:#5CACCA"/>
	<stop  offset="0.3198" style="stop-color:#57A6C8"/>
	<stop  offset="0.398" style="stop-color:#4F9AC3"/>
	<stop  offset="0.4276" style="stop-color:#4C94C0"/>
	<stop  offset="0.4847" style="stop-color:#478DBD"/>
	<stop  offset="0.5628" style="stop-color:#3F80B7"/>
	<stop  offset="0.6173" style="stop-color:#3B7BB4"/>
	<stop  offset="0.664" style="stop-color:#3371AF"/>
	<stop  offset="0.7442" style="stop-color:#2763A9"/>
	<stop  offset="0.8262" style="stop-color:#1F59A4"/>
	<stop  offset="0.9103" style="stop-color:#1953A2"/>
	<stop  offset="1" style="stop-color:#1851A1"/>
</linearGradient>
<path id="XMLID_3_" class="st3" d="M473.2,965.2L307,773.1c-10.3-11.9-10.3-29,0-40.9l166.2-192.1c13.8-15.9,39.7-15.9,53.5,0
	L693,732.2c10.3,11.9,10.3,29,0,40.9L526.8,965.2C513,981.1,487,981.1,473.2,965.2z"/>
</svg>
