<?xml version="1.0" encoding="UTF-8"?>
<svg version="1.1" xmlns="http://www.w3.org/2000/svg" width="3375" height="3375">
<path d="M0 0 C2.67699839 2.1804839 5.32675228 4.39158625 7.96630859 6.6171875 C10.4765411 8.72850177 13.02005954 10.79811578 15.56396484 12.86865234 C17.29325364 14.28516992 19.02242216 15.70183436 20.75146484 17.11865234 C22.58468132 18.61879516 24.4180163 20.11879317 26.25146484 21.61865234 C37.25146484 30.61865234 37.25146484 30.61865234 40.02490234 32.88818359 C41.77964269 34.3236517 43.53481639 35.7585903 45.29052734 37.19287109 C51.69985335 42.43070398 58.0908968 47.69042453 64.47900391 52.95410156 C70.22601547 57.68851997 75.98502264 62.40791263 81.75146484 67.11865234 C83.5849152 68.6185093 85.41824656 70.11851174 87.25146484 71.61865234 C88.61271484 72.73240234 88.61271484 72.73240234 90.00146484 73.86865234 C120.25146484 98.61865234 120.25146484 98.61865234 123.02490234 100.88818359 C124.77964269 102.3236517 126.53481639 103.7585903 128.29052734 105.19287109 C134.69985335 110.43070398 141.0908968 115.69042453 147.47900391 120.95410156 C153.22601547 125.68851997 158.98502264 130.40791263 164.75146484 135.11865234 C166.5849152 136.6185093 168.41824656 138.11851174 170.25146484 139.61865234 C171.15896484 140.36115234 172.06646484 141.10365234 173.00146484 141.86865234 C214.25146484 175.61865234 214.25146484 175.61865234 217.02490234 177.88818359 C218.77964269 179.3236517 220.53481639 180.7585903 222.29052734 182.19287109 C228.69985335 187.43070398 235.0908968 192.69042453 241.47900391 197.95410156 C247.22601547 202.68851997 252.98502264 207.40791263 258.75146484 212.11865234 C260.5849152 213.6185093 262.41824656 215.11851174 264.25146484 216.61865234 C265.15896484 217.36115234 266.06646484 218.10365234 267.00146484 218.86865234 C363.25146484 297.61865234 363.25146484 297.61865234 366.02490234 299.88818359 C367.77964269 301.3236517 369.53481639 302.7585903 371.29052734 304.19287109 C377.69985335 309.43070398 384.0908968 314.69042453 390.47900391 319.95410156 C396.22601547 324.68851997 401.98502264 329.40791263 407.75146484 334.11865234 C409.5849152 335.6185093 411.41824656 337.11851174 413.25146484 338.61865234 C414.15896484 339.36115234 415.06646484 340.10365234 416.00146484 340.86865234 C446.25146484 365.61865234 446.25146484 365.61865234 449.00927734 367.87646484 C450.81470895 369.35270095 452.62195625 370.8267197 454.43115234 372.29833984 C459.43669512 376.37531816 464.3961982 380.49918246 469.31396484 384.68115234 C473.9120021 388.58961869 478.56601846 392.41097193 483.29443359 396.16162109 C487.81931366 399.76569886 492.27939587 403.44942324 496.75146484 407.11865234 C498.58456646 408.61893551 500.41789912 410.11893642 502.25146484 411.61865234 C557.25146484 456.61865234 557.25146484 456.61865234 560.02490234 458.88818359 C561.77964269 460.3236517 563.53481639 461.7585903 565.29052734 463.19287109 C571.69985335 468.43070398 578.0908968 473.69042453 584.47900391 478.95410156 C590.22601547 483.68851997 595.98502264 488.40791263 601.75146484 493.11865234 C603.5849152 494.6185093 605.41824656 496.11851174 607.25146484 497.61865234 C608.15896484 498.36115234 609.06646484 499.10365234 610.00146484 499.86865234 C673.25146484 551.61865234 673.25146484 551.61865234 676.02490234 553.88818359 C677.77964269 555.3236517 679.53481639 556.7585903 681.29052734 558.19287109 C683.55779391 560.04572791 685.82328144 561.90073284 688.08789062 563.75683594 C689.30157494 564.75036853 690.51622621 565.74272025 691.73144531 566.734375 C710.12169568 581.74434218 710.12169568 581.74434218 716.75146484 588.11865234 C717.44369141 588.77349609 718.13591797 589.42833984 718.84912109 590.10302734 C732.09378706 603.67944795 736.28179839 621.53072183 736.17163086 639.95507812 C735.95792976 647.91732166 734.77442638 654.68720524 731.75146484 662.11865234 C731.27708984 663.28654297 730.80271484 664.45443359 730.31396484 665.65771484 C722.93378818 681.94377776 709.086219 693.07169925 695.21411133 703.81542969 C690.25118369 707.67496282 685.48001327 711.72734029 680.7277832 715.84179688 C676.61874514 719.39364776 672.43395274 722.82727303 668.17333984 726.19677734 C663.65484744 729.78241971 659.21077777 733.45988929 654.75146484 737.11865234 C652.91836323 738.61893551 651.08503057 740.11893642 649.25146484 741.61865234 C648.34396484 742.36115234 647.43646484 743.10365234 646.50146484 743.86865234 C629.08479818 758.11865234 611.66813151 772.36865234 594.25146484 786.61865234 C593.33623047 787.36759766 592.42099609 788.11654297 591.47802734 788.88818359 C589.723287 790.3236517 587.9681133 791.7585903 586.21240234 793.19287109 C580.54805694 797.82189052 574.89705931 802.46679141 569.25146484 807.11865234 C562.76241483 812.46550438 556.26301651 817.79921552 549.75146484 823.11865234 C547.91801448 824.6185093 546.08468313 826.11851174 544.25146484 827.61865234 C489.25146485 872.61865234 489.25146485 872.61865234 486.48193359 874.88427734 C484.71323689 876.33162286 482.94497941 877.77950535 481.17724609 879.22802734 C475.71240036 883.70446301 470.23541831 888.16566674 464.75146484 892.61865234 C454.81002316 900.69231502 444.90658281 908.81108335 435.02270508 916.95507812 C429.27613315 921.68921078 423.51750348 926.40824232 417.75146484 931.11865234 C415.91801448 932.6185093 414.08468313 934.11851174 412.25146484 935.61865234 C404.91813151 941.61865234 397.58479818 947.61865234 390.25146484 953.61865234 C389.33623047 954.36759766 388.42099609 955.11654297 387.47802734 955.88818359 C385.723287 957.3236517 383.9681133 958.7585903 382.21240234 960.19287109 C376.54805694 964.82189052 370.89705931 969.46679141 365.25146484 974.11865234 C358.76241483 979.46550438 352.26301651 984.79921552 345.75146484 990.11865234 C343.91801448 991.6185093 342.08468313 993.11851174 340.25146484 994.61865234 C336.58479818 997.61865234 332.91813151 1000.61865234 329.25146484 1003.61865234 C328.33623047 1004.36759766 327.42099609 1005.11654297 326.47802734 1005.88818359 C324.723287 1007.3236517 322.9681133 1008.7585903 321.21240234 1010.19287109 C315.54805694 1014.82189052 309.89705931 1019.46679141 304.25146484 1024.11865234 C297.76241483 1029.46550438 291.26301651 1034.79921552 284.75146484 1040.11865234 C282.91801448 1041.6185093 281.08468313 1043.11851174 279.25146484 1044.61865234 C271.91813151 1050.61865234 264.58479818 1056.61865234 257.25146484 1062.61865234 C256.33623047 1063.36759766 255.42099609 1064.11654297 254.47802734 1064.88818359 C252.723287 1066.3236517 250.9681133 1067.7585903 249.21240234 1069.19287109 C243.54805694 1073.82189052 237.89705931 1078.46679141 232.25146484 1083.11865234 C225.76241483 1088.46550438 219.26301651 1093.79921552 212.75146484 1099.11865234 C210.91801448 1100.6185093 209.08468313 1102.11851174 207.25146484 1103.61865234 C199.91813151 1109.61865234 192.58479818 1115.61865234 185.25146484 1121.61865234 C184.33623047 1122.36759766 183.42099609 1123.11654297 182.47802734 1123.88818359 C180.723287 1125.3236517 178.9681133 1126.7585903 177.21240234 1128.19287109 C171.54805694 1132.82189052 165.89705931 1137.46679141 160.25146484 1142.11865234 C153.76241483 1147.46550438 147.26301651 1152.79921552 140.75146484 1158.11865234 C138.91801448 1159.6185093 137.08468313 1161.11851174 135.25146484 1162.61865234 C131.58479818 1165.61865234 127.91813151 1168.61865234 124.25146484 1171.61865234 C123.33623047 1172.36759766 122.42099609 1173.11654297 121.47802734 1173.88818359 C119.723287 1175.3236517 117.9681133 1176.7585903 116.21240234 1178.19287109 C110.54805694 1182.82189052 104.89705931 1187.46679141 99.25146484 1192.11865234 C92.76241483 1197.46550438 86.26301651 1202.79921552 79.75146484 1208.11865234 C77.91801448 1209.6185093 76.08468313 1211.11851174 74.25146484 1212.61865234 C70.58479818 1215.61865234 66.91813151 1218.61865234 63.25146484 1221.61865234 C62.33623047 1222.36759766 61.42099609 1223.11654297 60.47802734 1223.88818359 C58.723287 1225.3236517 56.9681133 1226.7585903 55.21240234 1228.19287109 C49.54805694 1232.82189052 43.89705931 1237.46679141 38.25146484 1242.11865234 C32.60085011 1246.77464989 26.9454082 1251.4243878 21.27490234 1256.05615234 C19.56991114 1257.44970552 17.86683225 1258.84560118 16.16552734 1260.24365234 C14.36406973 1261.72285508 12.55928407 1263.19801254 10.75146484 1264.66943359 C8.57413645 1266.4470181 6.40994725 1268.23651715 4.25146484 1270.03662109 C-19.95979759 1290.04735229 -46.56495216 1300.20962069 -78.24853516 1298.11865234 C-105.19183577 1295.04612687 -125.91366931 1282.08015374 -146.15478516 1264.74755859 C-149.64292483 1261.76739 -153.22143736 1258.90795716 -156.81494141 1256.05615234 C-164.95582502 1249.5748068 -172.94512562 1242.90043788 -180.97583008 1236.28344727 C-186.72287463 1231.54888862 -192.48200429 1226.82946448 -198.24853516 1222.11865234 C-200.08198552 1220.61879539 -201.91531687 1219.11879294 -203.74853516 1217.61865234 C-204.65603516 1216.87615234 -205.56353516 1216.13365234 -206.49853516 1215.36865234 C-214.74853515 1208.61865235 -214.74853515 1208.61865235 -217.52197266 1206.34912109 C-219.276713 1204.91365299 -221.0318867 1203.47871439 -222.78759766 1202.04443359 C-229.19692366 1196.80660071 -235.58796711 1191.54688015 -241.97607422 1186.28320312 C-247.72308578 1181.54878471 -253.48209295 1176.82939205 -259.24853516 1172.11865234 C-261.08198552 1170.61879539 -262.91531687 1169.11879294 -264.74853516 1167.61865234 C-265.65603516 1166.87615234 -266.56353516 1166.13365234 -267.49853516 1165.36865234 C-297.74853516 1140.61865234 -297.74853516 1140.61865234 -300.52197266 1138.34912109 C-302.276713 1136.91365299 -304.0318867 1135.47871439 -305.78759766 1134.04443359 C-312.19692366 1128.80660071 -318.58796711 1123.54688015 -324.97607422 1118.28320312 C-330.72308578 1113.54878471 -336.48209295 1108.82939205 -342.24853516 1104.11865234 C-344.08198552 1102.61879539 -345.91531687 1101.11879294 -347.74853516 1099.61865234 C-348.65603516 1098.87615234 -349.56353516 1098.13365234 -350.49853516 1097.36865234 C-380.74853515 1072.61865235 -380.74853515 1072.61865235 -383.52197266 1070.34912109 C-385.276713 1068.91365299 -387.0318867 1067.47871439 -388.78759766 1066.04443359 C-395.19692366 1060.80660071 -401.58796711 1055.54688015 -407.97607422 1050.28320312 C-413.72308578 1045.54878471 -419.48209295 1040.82939205 -425.24853516 1036.11865234 C-427.08198552 1034.61879539 -428.91531687 1033.11879294 -430.74853516 1031.61865234 C-431.65603516 1030.87615234 -432.56353516 1030.13365234 -433.49853516 1029.36865234 C-474.74853515 995.61865235 -474.74853515 995.61865235 -477.52197266 993.34912109 C-479.276713 991.91365299 -481.0318867 990.47871439 -482.78759766 989.04443359 C-489.19692366 983.80660071 -495.58796711 978.54688015 -501.97607422 973.28320312 C-507.72308578 968.54878471 -513.48209295 963.82939205 -519.24853516 959.11865234 C-521.08198552 957.61879539 -522.91531687 956.11879294 -524.74853516 954.61865234 C-525.65603516 953.87615234 -526.56353516 953.13365234 -527.49853516 952.36865234 C-530.24853516 950.11865234 -532.99853516 947.86865234 -535.74853516 945.61865234 C-536.65990234 944.87357422 -537.57126953 944.12849609 -538.51025391 943.36083984 C-540.30685784 941.88972621 -542.10120972 940.41585706 -543.89306641 938.93896484 C-548.91816642 934.80410949 -553.99125517 930.74380138 -559.12353516 926.74365234 C-564.31075156 922.69760941 -569.36001504 918.5212598 -574.35571289 914.24194336 C-578.21984896 910.94776298 -582.173954 907.79280117 -586.18603516 904.68115234 C-591.69056771 900.4086231 -597.00528745 895.95530129 -602.27294922 891.39501953 C-606.38159871 887.84316048 -610.56627707 884.40984991 -614.82666016 881.04052734 C-619.34515256 877.45488498 -623.78922223 873.7774154 -628.24853516 870.11865234 C-630.08163677 868.61836918 -631.91496943 867.11836826 -633.74853516 865.61865234 C-634.66376953 864.86970703 -635.57900391 864.12076172 -636.52197266 863.34912109 C-638.276713 861.91365299 -640.0318867 860.47871439 -641.78759766 859.04443359 C-648.19692366 853.80660071 -654.58796711 848.54688015 -660.97607422 843.28320312 C-666.72308578 838.54878471 -672.48209295 833.82939205 -678.24853516 829.11865234 C-680.08198552 827.61879539 -681.91531687 826.11879294 -683.74853516 824.61865234 C-684.65603516 823.87615234 -685.56353516 823.13365234 -686.49853516 822.36865234 C-705.74853516 806.61865234 -705.74853516 806.61865234 -708.52197266 804.34912109 C-710.276713 802.91365299 -712.0318867 801.47871439 -713.78759766 800.04443359 C-720.19692366 794.80660071 -726.58796711 789.54688015 -732.97607422 784.28320312 C-738.72308578 779.54878471 -744.48209295 774.82939205 -750.24853516 770.11865234 C-752.08198552 768.61879539 -753.91531687 767.11879294 -755.74853516 765.61865234 C-756.65603516 764.87615234 -757.56353516 764.13365234 -758.49853516 763.36865234 C-777.74853516 747.61865234 -777.74853516 747.61865234 -780.52197266 745.34912109 C-782.276713 743.91365299 -784.0318867 742.47871439 -785.78759766 741.04443359 C-792.19692366 735.80660071 -798.58796711 730.54688015 -804.97607422 725.28320312 C-810.72308578 720.54878471 -816.48209295 715.82939205 -822.24853516 711.11865234 C-824.99793255 708.86950348 -827.74697486 706.61993076 -830.49462891 704.36865234 C-832.33682026 702.86354281 -834.18321666 701.36356603 -836.03369141 699.86865234 C-838.78800781 697.63730741 -841.52313394 695.38520517 -844.24853516 693.11865234 C-845.10576172 692.41095703 -845.96298828 691.70326172 -846.84619141 690.97412109 C-861.40206736 678.48801421 -870.78652815 662.2784148 -872.42871094 643.00390625 C-873.59801527 624.03938256 -868.98317467 605.97518194 -856.42138672 591.36547852 C-847.82400875 581.90558542 -837.62106866 574.13512012 -827.55883789 566.3203125 C-822.64741687 562.48631019 -817.92139632 558.46081243 -813.2109375 554.3840332 C-809.23652137 550.94894635 -805.19047913 547.63041581 -801.06884766 544.37255859 C-797.28389602 541.34774267 -793.54818266 538.26471617 -789.81103516 535.18115234 C-789.07183838 534.57134521 -788.3326416 533.96153809 -787.57104492 533.33325195 C-786.12350422 532.13903489 -784.67599359 530.94478139 -783.22851562 529.75048828 C-778.91258337 526.19343635 -774.57982131 522.65697996 -770.24853516 519.11865234 C-768.4150848 517.61879539 -766.58175344 516.11879294 -764.74853516 514.61865234 C-757.41520182 508.61865234 -750.08186849 502.61865234 -742.74853516 496.61865234 C-741.83330078 495.86970703 -740.91806641 495.12076172 -739.97509766 494.34912109 C-738.22035731 492.91365299 -736.46518361 491.47871439 -734.70947266 490.04443359 C-729.04512726 485.41541417 -723.39412962 480.77051328 -717.74853516 476.11865234 C-711.25948514 470.7718003 -704.76008683 465.43808917 -698.24853516 460.11865234 C-696.4150848 458.61879539 -694.58175344 457.11879294 -692.74853516 455.61865234 C-681.74853516 446.61865234 -670.74853516 437.61865234 -659.74853516 428.61865234 C-658.83330078 427.86970703 -657.91806641 427.12076172 -656.97509766 426.34912109 C-655.22035731 424.91365299 -653.46518361 423.47871439 -651.70947266 422.04443359 C-646.04512726 417.41541417 -640.39412962 412.77051328 -634.74853516 408.11865234 C-628.25948514 402.7718003 -621.76008683 397.43808917 -615.24853516 392.11865234 C-613.4150848 390.61879539 -611.58175344 389.11879294 -609.74853516 387.61865234 C-587.74853516 369.61865234 -587.74853516 369.61865234 -584.97900391 367.35302734 C-583.2103072 365.90568183 -581.44204973 364.45779934 -579.67431641 363.00927734 C-576.86754763 360.71016032 -574.05852342 358.4138336 -571.24853516 356.11865234 C-570.34893066 355.38340332 -570.34893066 355.38340332 -569.43115234 354.63330078 C-562.37965682 348.87357394 -555.31171624 343.14470144 -548.12353516 337.55615234 C-542.68525685 333.32259999 -537.4336321 328.90467733 -532.22338867 324.39453125 C-528.10742944 320.8360081 -523.91423442 317.39751875 -519.64697266 314.02099609 C-511.50751604 307.56510787 -503.5388406 300.88964061 -495.52124023 294.28344727 C-489.77419568 289.54888862 -484.01506602 284.82946448 -478.24853516 280.11865234 C-476.4150848 278.61879539 -474.58175344 277.11879294 -472.74853516 275.61865234 C-461.74853516 266.61865234 -450.74853516 257.61865234 -439.74853516 248.61865234 C-438.83330078 247.86970703 -437.91806641 247.12076172 -436.97509766 246.34912109 C-435.22035731 244.91365299 -433.46518361 243.47871439 -431.70947266 242.04443359 C-426.04512726 237.41541417 -420.39412962 232.77051328 -414.74853516 228.11865234 C-408.25948514 222.7718003 -401.76008683 217.43808917 -395.24853516 212.11865234 C-393.4150848 210.61879539 -391.58175344 209.11879294 -389.74853516 207.61865234 C-378.74853516 198.61865234 -367.74853516 189.61865234 -356.74853516 180.61865234 C-355.83330078 179.86970703 -354.91806641 179.12076172 -353.97509766 178.34912109 C-352.22035731 176.91365299 -350.46518361 175.47871439 -348.70947266 174.04443359 C-343.04512726 169.41541417 -337.39412962 164.77051328 -331.74853516 160.11865234 C-325.25948514 154.7718003 -318.76008683 149.43808917 -312.24853516 144.11865234 C-310.4150848 142.61879539 -308.58175344 141.11879294 -306.74853516 139.61865234 C-295.74853516 130.61865234 -284.74853516 121.61865234 -273.74853516 112.61865234 C-272.83330078 111.86970703 -271.91806641 111.12076172 -270.97509766 110.34912109 C-269.22035731 108.91365299 -267.46518361 107.47871439 -265.70947266 106.04443359 C-260.04512726 101.41541417 -254.39412962 96.77051328 -248.74853516 92.11865234 C-242.25948514 86.7718003 -235.76008683 81.43808917 -229.24853516 76.11865234 C-227.4150848 74.61879539 -225.58175344 73.11879294 -223.74853516 71.61865234 C-212.74853516 62.61865234 -201.74853516 53.61865234 -190.74853516 44.61865234 C-189.83330078 43.86970703 -188.91806641 43.12076172 -187.97509766 42.34912109 C-186.22035731 40.91365299 -184.46518361 39.47871439 -182.70947266 38.04443359 C-177.04512726 33.41541417 -171.39412962 28.77051328 -165.74853516 24.11865234 C-160.10357889 19.46731727 -154.45550287 14.82014414 -148.78759766 10.19677734 C-147.0268151 8.75564454 -145.27199851 7.30720356 -143.52197266 5.85302734 C-100.05382872 -30.14594257 -45.47799414 -36.35895854 0 0 Z " fill="#000000" transform="translate(2599.24853515625,1050.88134765625)"/>
<path d="M0 0 C4.41223201 3.53643722 8.72092371 7.18570145 13.015625 10.86328125 C16.4960376 13.83684805 20.06612125 16.69051126 23.65234375 19.53515625 C28.17722983 23.13923881 32.63706202 26.82324616 37.109375 30.4921875 C38.81759858 31.88815515 40.52593357 33.28398648 42.234375 34.6796875 C47.77942382 39.21582343 53.30797073 43.77189407 58.83691406 48.32763672 C64.58392562 53.06205513 70.34293279 57.78144779 76.109375 62.4921875 C77.94282536 63.99204446 79.77615671 65.4920469 81.609375 66.9921875 C82.970625 68.1059375 82.970625 68.1059375 84.359375 69.2421875 C92.609375 75.9921875 92.609375 75.9921875 95.3828125 78.26171875 C97.13755284 79.69718685 98.89272655 81.13212546 100.6484375 82.56640625 C107.0577635 87.80423913 113.44880696 93.06395969 119.83691406 98.32763672 C125.5839232 103.06205313 131.34250213 107.78197767 137.109375 112.4921875 C144.36656887 118.41964709 151.60534379 124.36896231 158.83691406 130.32763672 C164.58392562 135.06205513 170.34293279 139.78144779 176.109375 144.4921875 C177.94282536 145.99204446 179.77615671 147.4920469 181.609375 148.9921875 C182.516875 149.7346875 183.424375 150.4771875 184.359375 151.2421875 C280.609375 229.9921875 280.609375 229.9921875 283.3828125 232.26171875 C285.13755284 233.69718685 286.89272655 235.13212546 288.6484375 236.56640625 C295.0577635 241.80423913 301.44880696 247.06395969 307.83691406 252.32763672 C313.58392562 257.06205513 319.34293279 261.78144779 325.109375 266.4921875 C326.94282536 267.99204446 328.77615671 269.4920469 330.609375 270.9921875 C331.516875 271.7346875 332.424375 272.4771875 333.359375 273.2421875 C407.609375 333.9921875 407.609375 333.9921875 410.3828125 336.26171875 C412.13755284 337.69718685 413.89272655 339.13212546 415.6484375 340.56640625 C422.0577635 345.80423913 428.44880696 351.06395969 434.83691406 356.32763672 C440.58392562 361.06205513 446.34293279 365.78144779 452.109375 370.4921875 C453.94282536 371.99204446 455.77615671 373.4920469 457.609375 374.9921875 C458.516875 375.7346875 459.424375 376.4771875 460.359375 377.2421875 C534.609375 437.9921875 534.609375 437.9921875 537.3828125 440.26171875 C539.13755284 441.69718685 540.89272655 443.13212546 542.6484375 444.56640625 C549.0577635 449.80423913 555.44880696 455.06395969 561.83691406 460.32763672 C567.58392562 465.06205513 573.34293279 469.78144779 579.109375 474.4921875 C580.94282536 475.99204446 582.77615671 477.4920469 584.609375 478.9921875 C585.516875 479.7346875 586.424375 480.4771875 587.359375 481.2421875 C606.609375 496.9921875 606.609375 496.9921875 609.3671875 499.25 C611.17261911 500.7262361 612.97986641 502.20025486 614.7890625 503.671875 C619.79460527 507.74885332 624.75410836 511.87271762 629.671875 516.0546875 C634.26991226 519.96315385 638.92392862 523.78450709 643.65234375 527.53515625 C648.17722381 531.13923401 652.63730603 534.8229584 657.109375 538.4921875 C658.94247662 539.99247067 660.77580927 541.49247158 662.609375 542.9921875 C695.609375 569.9921875 695.609375 569.9921875 698.35546875 572.2421875 C700.19766011 573.74729703 702.0440565 575.24727382 703.89453125 576.7421875 C706.64880064 578.97349434 709.38208031 581.22801832 712.109375 583.4921875 C712.96660156 584.18828125 713.82382813 584.884375 714.70703125 585.6015625 C728.75995928 597.50419706 736.59111354 613.31775788 739.109375 631.4921875 C740.76599569 653.16441703 733.91386986 671.09287538 720.046875 687.4296875 C715.41483858 692.46212029 710.21941686 696.49834861 704.80078125 700.62890625 C701.03510881 703.51276294 697.4404299 706.57124173 693.859375 709.6796875 C689.16114934 713.74859411 684.40724638 717.71413236 679.53125 721.5703125 C675.01275759 725.15595486 670.56868792 728.83342444 666.109375 732.4921875 C664.27627338 733.99247067 662.44294073 735.49247158 660.609375 736.9921875 C659.701875 737.7346875 658.794375 738.4771875 657.859375 739.2421875 C649.609375 745.9921875 649.609375 745.9921875 646.83984375 748.2578125 C645.07114705 749.70515801 643.30288957 751.15304051 641.53515625 752.6015625 C636.07031052 757.07799817 630.59332846 761.53920189 625.109375 765.9921875 C615.16793332 774.06585018 605.26449297 782.18461851 595.38061523 790.32861328 C589.63404331 795.06274594 583.87541364 799.78177747 578.109375 804.4921875 C576.27592464 805.99204446 574.44259329 807.4920469 572.609375 808.9921875 C561.609375 817.9921875 550.609375 826.9921875 539.609375 835.9921875 C538.69414063 836.74113281 537.77890625 837.49007812 536.8359375 838.26171875 C535.08119716 839.69718685 533.32602345 841.13212546 531.5703125 842.56640625 C525.9059671 847.19542568 520.25496947 851.84032656 514.609375 856.4921875 C508.12032499 861.83903954 501.62092667 867.17275068 495.109375 872.4921875 C493.27592464 873.99204446 491.44259329 875.4920469 489.609375 876.9921875 C482.27604167 882.9921875 474.94270833 888.9921875 467.609375 894.9921875 C466.69414063 895.74113281 465.77890625 896.49007812 464.8359375 897.26171875 C463.08119716 898.69718685 461.32602345 900.13212546 459.5703125 901.56640625 C453.9059671 906.19542568 448.25496947 910.84032656 442.609375 915.4921875 C436.12032499 920.83903954 429.62092667 926.17275068 423.109375 931.4921875 C421.27592464 932.99204446 419.44259329 934.4920469 417.609375 935.9921875 C406.609375 944.9921875 395.609375 953.9921875 384.609375 962.9921875 C383.69414063 963.74113281 382.77890625 964.49007812 381.8359375 965.26171875 C380.08119716 966.69718685 378.32602345 968.13212546 376.5703125 969.56640625 C370.9059671 974.19542568 365.25496947 978.84032656 359.609375 983.4921875 C353.12032499 988.83903954 346.62092667 994.17275068 340.109375 999.4921875 C338.27592464 1000.99204446 336.44259329 1002.4920469 334.609375 1003.9921875 C323.609375 1012.9921875 312.609375 1021.9921875 301.609375 1030.9921875 C300.69414063 1031.74113281 299.77890625 1032.49007812 298.8359375 1033.26171875 C297.08119716 1034.69718685 295.32602345 1036.13212546 293.5703125 1037.56640625 C287.9059671 1042.19542568 282.25496947 1046.84032656 276.609375 1051.4921875 C270.12032499 1056.83903954 263.62092667 1062.17275068 257.109375 1067.4921875 C255.27592464 1068.99204446 253.44259329 1070.4920469 251.609375 1071.9921875 C244.27604167 1077.9921875 236.94270833 1083.9921875 229.609375 1089.9921875 C228.69414063 1090.74113281 227.77890625 1091.49007812 226.8359375 1092.26171875 C225.08119716 1093.69718685 223.32602345 1095.13212546 221.5703125 1096.56640625 C215.9059671 1101.19542568 210.25496947 1105.84032656 204.609375 1110.4921875 C198.12032499 1115.83903954 191.62092667 1121.17275068 185.109375 1126.4921875 C183.27592464 1127.99204446 181.44259329 1129.4920469 179.609375 1130.9921875 C168.609375 1139.9921875 157.609375 1148.9921875 146.609375 1157.9921875 C145.69414063 1158.74113281 144.77890625 1159.49007812 143.8359375 1160.26171875 C142.08119716 1161.69718685 140.32602345 1163.13212546 138.5703125 1164.56640625 C132.9059671 1169.19542568 127.25496947 1173.84032656 121.609375 1178.4921875 C115.12032499 1183.83903954 108.62092667 1189.17275068 102.109375 1194.4921875 C100.27592464 1195.99204446 98.44259329 1197.4920469 96.609375 1198.9921875 C93.9303758 1201.18443896 91.25113292 1203.37638218 88.5703125 1205.56640625 C82.9059671 1210.19542568 77.25496947 1214.84032656 71.609375 1219.4921875 C65.12032499 1224.83903954 58.62092667 1230.17275068 52.109375 1235.4921875 C50.27592464 1236.99204446 48.44259329 1238.4920469 46.609375 1239.9921875 C42.94270833 1242.9921875 39.27604167 1245.9921875 35.609375 1248.9921875 C34.69414063 1249.74113281 33.77890625 1250.49007812 32.8359375 1251.26171875 C31.08119716 1252.69718685 29.32602345 1254.13212546 27.5703125 1255.56640625 C26.71695313 1256.26378906 25.86359375 1256.96117188 24.984375 1257.6796875 C24.08074219 1258.41703125 23.17710937 1259.154375 22.24609375 1259.9140625 C19.86064899 1261.86742375 17.49310275 1263.84129722 15.12890625 1265.8203125 C-11.83131608 1288.33847034 -38.60741571 1302.87641987 -74.890625 1300.4921875 C-102.39583249 1297.34156306 -123.33433592 1284.33630555 -143.94726562 1266.66674805 C-147.82642786 1263.35261947 -151.79624852 1260.18055583 -155.828125 1257.0546875 C-161.33273789 1252.78226752 -166.64738334 1248.32883122 -171.91503906 1243.76855469 C-176.03138729 1240.21004021 -180.22469599 1236.7712357 -184.4921875 1233.39453125 C-192.63164411 1226.93864302 -200.60031956 1220.26317577 -208.61791992 1213.65698242 C-214.36496447 1208.92242378 -220.12409413 1204.20299964 -225.890625 1199.4921875 C-227.72407536 1197.99233054 -229.55740671 1196.4923281 -231.390625 1194.9921875 C-232.298125 1194.2496875 -233.205625 1193.5071875 -234.140625 1192.7421875 C-242.390625 1185.9921875 -242.390625 1185.9921875 -245.1640625 1183.72265625 C-246.91880284 1182.28718815 -248.67397655 1180.85224954 -250.4296875 1179.41796875 C-256.8390135 1174.18013587 -263.23005696 1168.92041531 -269.61816406 1163.65673828 C-275.36517562 1158.92231987 -281.12418279 1154.20292721 -286.890625 1149.4921875 C-288.72407536 1147.99233054 -290.55740671 1146.4923281 -292.390625 1144.9921875 C-293.298125 1144.2496875 -294.205625 1143.5071875 -295.140625 1142.7421875 C-325.390625 1117.9921875 -325.390625 1117.9921875 -328.1640625 1115.72265625 C-329.91880284 1114.28718815 -331.67397655 1112.85224954 -333.4296875 1111.41796875 C-339.8390135 1106.18013587 -346.23005696 1100.92041531 -352.61816406 1095.65673828 C-358.36517562 1090.92231987 -364.12418279 1086.20292721 -369.890625 1081.4921875 C-371.72407536 1079.99233054 -373.55740671 1078.4923281 -375.390625 1076.9921875 C-376.30457031 1076.24453125 -377.21851563 1075.496875 -378.16015625 1074.7265625 C-379.92885295 1073.27921699 -381.69711043 1071.83133449 -383.46484375 1070.3828125 C-388.92968921 1065.90637705 -394.40663145 1061.4451235 -399.890625 1056.9921875 C-406.23583882 1051.83995113 -412.5684716 1046.67270774 -418.890625 1041.4921875 C-420.72384148 1039.99204469 -422.55717646 1038.49204668 -424.390625 1036.9921875 C-425.30585938 1036.24324219 -426.22109375 1035.49429688 -427.1640625 1034.72265625 C-428.91880284 1033.28718815 -430.67397655 1031.85224954 -432.4296875 1030.41796875 C-438.8390135 1025.18013587 -445.23005696 1019.92041531 -451.61816406 1014.65673828 C-457.36517562 1009.92231987 -463.12418279 1005.20292721 -468.890625 1000.4921875 C-470.72407536 998.99233054 -472.55740671 997.4923281 -474.390625 995.9921875 C-475.298125 995.2496875 -476.205625 994.5071875 -477.140625 993.7421875 C-507.390625 968.9921875 -507.390625 968.9921875 -510.1640625 966.72265625 C-511.91880284 965.28718815 -513.67397655 963.85224954 -515.4296875 962.41796875 C-521.8390135 957.18013587 -528.23005696 951.92041531 -534.61816406 946.65673828 C-540.36517562 941.92231987 -546.12418279 937.20292721 -551.890625 932.4921875 C-553.72407536 930.99233054 -555.55740671 929.4923281 -557.390625 927.9921875 C-558.298125 927.2496875 -559.205625 926.5071875 -560.140625 925.7421875 C-590.390625 900.9921875 -590.390625 900.9921875 -593.1640625 898.72265625 C-594.91880284 897.28718815 -596.67397655 895.85224954 -598.4296875 894.41796875 C-604.8390135 889.18013587 -611.23005696 883.92041531 -617.61816406 878.65673828 C-623.36517562 873.92231987 -629.12418279 869.20292721 -634.890625 864.4921875 C-636.72407536 862.99233054 -638.55740671 861.4923281 -640.390625 859.9921875 C-641.298125 859.2496875 -642.205625 858.5071875 -643.140625 857.7421875 C-673.390625 832.9921875 -673.390625 832.9921875 -676.1640625 830.72265625 C-677.91880284 829.28718815 -679.67397655 827.85224954 -681.4296875 826.41796875 C-687.8390135 821.18013587 -694.23005696 815.92041531 -700.61816406 810.65673828 C-706.36517562 805.92231987 -712.12418279 801.20292721 -717.890625 796.4921875 C-719.72407536 794.99233054 -721.55740671 793.4923281 -723.390625 791.9921875 C-724.298125 791.2496875 -725.205625 790.5071875 -726.140625 789.7421875 C-756.390625 764.9921875 -756.390625 764.9921875 -759.1640625 762.72265625 C-760.91880284 761.28718815 -762.67397655 759.85224954 -764.4296875 758.41796875 C-770.8390135 753.18013587 -777.23005696 747.92041531 -783.61816406 742.65673828 C-789.36517562 737.92231987 -795.12418279 733.20292721 -800.890625 728.4921875 C-802.72407536 726.99233054 -804.55740671 725.4923281 -806.390625 723.9921875 C-807.298125 723.2496875 -808.205625 722.5071875 -809.140625 721.7421875 C-828.390625 705.9921875 -828.390625 705.9921875 -831.13671875 703.73828125 C-832.97384485 702.23991599 -834.82028173 700.75289526 -836.67578125 699.27734375 C-854.11278017 685.3228397 -866.51298726 669.61849466 -869.33203125 646.94140625 C-871.21919403 628.35585202 -866.40293578 610.40725208 -854.890625 595.4921875 C-847.96371924 587.63678666 -840.18420411 580.86070691 -831.890625 574.4921875 C-830.07290698 573.01943787 -828.26057648 571.54001892 -826.453125 570.0546875 C-825.53660156 569.30316406 -824.62007812 568.55164062 -823.67578125 567.77734375 C-822.75667969 567.02324219 -821.83757812 566.26914063 -820.890625 565.4921875 C-819.05752338 563.99190433 -817.22419073 562.49190342 -815.390625 560.9921875 C-814.483125 560.2496875 -813.575625 559.5071875 -812.640625 558.7421875 C-806.22395833 553.4921875 -799.80729167 548.2421875 -793.390625 542.9921875 C-792.47539063 542.24324219 -791.56015625 541.49429688 -790.6171875 540.72265625 C-788.86244716 539.28718815 -787.10727345 537.85224954 -785.3515625 536.41796875 C-779.6872171 531.78894932 -774.03621947 527.14404844 -768.390625 522.4921875 C-761.90157499 517.14533546 -755.40217667 511.81162432 -748.890625 506.4921875 C-747.05717464 504.99233054 -745.22384329 503.4923281 -743.390625 501.9921875 C-732.390625 492.9921875 -721.390625 483.9921875 -710.390625 474.9921875 C-709.47539063 474.24324219 -708.56015625 473.49429687 -707.6171875 472.72265625 C-705.86244716 471.28718815 -704.10727345 469.85224954 -702.3515625 468.41796875 C-696.6872171 463.78894932 -691.03621947 459.14404844 -685.390625 454.4921875 C-678.90157499 449.14533546 -672.40217667 443.81162432 -665.890625 438.4921875 C-664.05717464 436.99233054 -662.22384329 435.4923281 -660.390625 433.9921875 C-649.390625 424.9921875 -638.390625 415.9921875 -627.390625 406.9921875 C-626.47539063 406.24324219 -625.56015625 405.49429687 -624.6171875 404.72265625 C-622.86244716 403.28718815 -621.10727345 401.85224954 -619.3515625 400.41796875 C-613.6872171 395.78894932 -608.03621947 391.14404844 -602.390625 386.4921875 C-595.90157499 381.14533546 -589.40217667 375.81162432 -582.890625 370.4921875 C-581.05717464 368.99233054 -579.22384329 367.4923281 -577.390625 365.9921875 C-566.390625 356.9921875 -555.390625 347.9921875 -544.390625 338.9921875 C-543.47539063 338.24324219 -542.56015625 337.49429687 -541.6171875 336.72265625 C-539.86244716 335.28718815 -538.10727345 333.85224954 -536.3515625 332.41796875 C-530.6872171 327.78894932 -525.03621947 323.14404844 -519.390625 318.4921875 C-512.90157499 313.14533546 -506.40217667 307.81162432 -499.890625 302.4921875 C-498.05717464 300.99233054 -496.22384329 299.4923281 -494.390625 297.9921875 C-479.72395833 285.9921875 -465.05729167 273.9921875 -450.390625 261.9921875 C-449.47539062 261.24324219 -448.56015625 260.49429687 -447.6171875 259.72265625 C-445.86244716 258.28718815 -444.10727345 256.85224954 -442.3515625 255.41796875 C-436.68721687 250.78894913 -431.03625598 246.14400437 -425.390625 241.4921875 C-415.55756804 233.39109553 -405.69407388 225.3286099 -395.80371094 217.29760742 C-390.15466737 212.70960979 -384.51999288 208.1043036 -378.890625 203.4921875 C-378.05917969 202.81285156 -377.22773437 202.13351562 -376.37109375 201.43359375 C-370.69993322 196.79973695 -365.04265392 192.1493503 -359.390625 187.4921875 C-352.90157499 182.14533546 -346.40217667 176.81162432 -339.890625 171.4921875 C-338.05717464 169.99233054 -336.22384329 168.4923281 -334.390625 166.9921875 C-327.05729167 160.9921875 -319.72395833 154.9921875 -312.390625 148.9921875 C-311.47539063 148.24324219 -310.56015625 147.49429687 -309.6171875 146.72265625 C-307.86244716 145.28718815 -306.10727345 143.85224954 -304.3515625 142.41796875 C-298.6872171 137.78894932 -293.03621947 133.14404844 -287.390625 128.4921875 C-280.90157499 123.14533546 -274.40217667 117.81162432 -267.890625 112.4921875 C-266.05717464 110.99233054 -264.22384329 109.4923281 -262.390625 107.9921875 C-245.890625 94.4921875 -245.890625 94.4921875 -229.390625 80.9921875 C-228.47539063 80.24324219 -227.56015625 79.49429687 -226.6171875 78.72265625 C-224.86244716 77.28718815 -223.10727345 75.85224954 -221.3515625 74.41796875 C-215.6872171 69.78894932 -210.03621947 65.14404844 -204.390625 60.4921875 C-197.90157499 55.14533546 -191.40217667 49.81162432 -184.890625 44.4921875 C-183.05717464 42.99233054 -181.22384329 41.4923281 -179.390625 39.9921875 C-157.390625 21.9921875 -157.390625 21.9921875 -154.625 19.73046875 C-152.84234876 18.27124138 -151.06103225 16.81038148 -149.28125 15.34765625 C-147.48975135 13.87682526 -145.69537989 12.40948778 -143.8984375 10.9453125 C-142.31407628 9.65313218 -140.73060549 8.35981345 -139.15527344 7.05664062 C-97.86110084 -27.09511255 -44.02719171 -33.8758444 0 0 Z " fill="#000000" transform="translate(908.890625,1048.5078125)"/>
<path d="M0 0 C10.53253133 8.07038115 18.75976254 18.92583113 26.92578125 29.2890625 C29.93453298 33.06589346 33.00851525 36.78752167 36.08203125 40.51171875 C37.30338559 41.99218736 38.52473976 43.47265611 39.74609375 44.953125 C40.62056152 46.01297607 40.62056152 46.01297607 41.51269531 47.09423828 C45.06974725 51.41017054 48.60620364 55.7429326 52.14453125 60.07421875 C53.64438821 61.90766911 55.14439065 63.74100046 56.64453125 65.57421875 C65.64453125 76.57421875 74.64453125 87.57421875 83.64453125 98.57421875 C84.39347656 99.48945312 85.14242187 100.4046875 85.9140625 101.34765625 C87.3495306 103.10239659 88.78446921 104.8575703 90.21875 106.61328125 C94.84776943 112.27762665 99.49267031 117.92862428 104.14453125 123.57421875 C109.49138329 130.06326876 114.82509443 136.56266708 120.14453125 143.07421875 C121.64438821 144.90766911 123.14439065 146.74100046 124.64453125 148.57421875 C133.64453125 159.57421875 142.64453125 170.57421875 151.64453125 181.57421875 C152.39347656 182.48945312 153.14242187 183.4046875 153.9140625 184.34765625 C155.3495306 186.10239659 156.78446921 187.8575703 158.21875 189.61328125 C162.84776943 195.27762665 167.49267031 200.92862428 172.14453125 206.57421875 C177.49138329 213.06326876 182.82509443 219.56266708 188.14453125 226.07421875 C189.64438821 227.90766911 191.14439065 229.74100046 192.64453125 231.57421875 C204.64453125 246.24088542 216.64453125 260.90755208 228.64453125 275.57421875 C229.39347656 276.48945312 230.14242187 277.4046875 230.9140625 278.34765625 C232.3495306 280.10239659 233.78446921 281.8575703 235.21875 283.61328125 C239.84776943 289.27762665 244.49267031 294.92862428 249.14453125 300.57421875 C254.49138329 307.06326876 259.82509443 313.56266708 265.14453125 320.07421875 C266.64438821 321.90766911 268.14439065 323.74100046 269.64453125 325.57421875 C278.64453125 336.57421875 287.64453125 347.57421875 296.64453125 358.57421875 C297.39347656 359.48945313 298.14242187 360.4046875 298.9140625 361.34765625 C300.3495306 363.10239659 301.78446921 364.8575703 303.21875 366.61328125 C307.84776943 372.27762665 312.49267031 377.92862428 317.14453125 383.57421875 C322.49138329 390.06326876 327.82509443 396.56266708 333.14453125 403.07421875 C334.64438821 404.90766911 336.14439065 406.74100046 337.64453125 408.57421875 C369.14453125 447.07421875 369.14453125 447.07421875 400.64453125 485.57421875 C401.39347656 486.48945313 402.14242187 487.4046875 402.9140625 488.34765625 C404.3495306 490.10239659 405.78446921 491.8575703 407.21875 493.61328125 C411.84776943 499.27762665 416.49267031 504.92862428 421.14453125 510.57421875 C426.49138329 517.06326876 431.82509443 523.56266708 437.14453125 530.07421875 C438.64438821 531.90766911 440.14439065 533.74100046 441.64453125 535.57421875 C456.64453125 553.90755208 471.64453125 572.24088542 486.64453125 590.57421875 C487.39347656 591.48945313 488.14242187 592.4046875 488.9140625 593.34765625 C490.3495306 595.10239659 491.78446921 596.8575703 493.21875 598.61328125 C497.84776943 604.27762665 502.49267031 609.92862428 507.14453125 615.57421875 C512.49138329 622.06326876 517.82509443 628.56266708 523.14453125 635.07421875 C524.64438821 636.90766911 526.14439065 638.74100046 527.64453125 640.57421875 C572.64453125 695.57421875 572.64453125 695.57421875 574.91015625 698.34375 C576.35750176 700.1124467 577.80538426 701.88070418 579.25390625 703.6484375 C580.71460303 705.43166039 582.17283242 707.21690655 583.62890625 709.00390625 C585.5025849 711.29072523 587.38847749 713.56446164 589.28515625 715.83203125 C610.74933286 741.63243692 622.8201309 769.04427123 619.95849609 803.30126953 C617.29865619 826.82812232 606.37072143 846.37746508 591.14453125 864.07421875 C589.63969094 865.90358114 588.13972831 867.73696622 586.64453125 869.57421875 C559.64453125 902.57421875 559.64453125 902.57421875 557.375 905.34765625 C555.9395319 907.10239659 554.50459329 908.8575703 553.0703125 910.61328125 C547.83247962 917.02260725 542.57275906 923.41365071 537.30908203 929.80175781 C532.57466362 935.54876937 527.85527096 941.30777654 523.14453125 947.07421875 C521.64467429 948.90766911 520.14467185 950.74100046 518.64453125 952.57421875 C517.90203125 953.48171875 517.15953125 954.38921875 516.39453125 955.32421875 C455.64453125 1029.57421875 455.64453125 1029.57421875 453.375 1032.34765625 C451.9395319 1034.10239659 450.50459329 1035.8575703 449.0703125 1037.61328125 C443.83247962 1044.02260725 438.57275906 1050.41365071 433.30908203 1056.80175781 C428.57466362 1062.54876937 423.85527096 1068.30777654 419.14453125 1074.07421875 C417.64467429 1075.90766911 416.14467185 1077.74100046 414.64453125 1079.57421875 C413.90203125 1080.48171875 413.15953125 1081.38921875 412.39453125 1082.32421875 C324.64453125 1189.57421875 324.64453125 1189.57421875 322.375 1192.34765625 C320.9395319 1194.10239659 319.50459329 1195.8575703 318.0703125 1197.61328125 C312.83247962 1204.02260725 307.57275906 1210.41365071 302.30908203 1216.80175781 C297.57466562 1222.54876695 292.85474108 1228.30734588 288.14453125 1234.07421875 C282.21707166 1241.33141262 276.26775644 1248.57018754 270.30908203 1255.80175781 C265.57466362 1261.54876937 260.85527096 1267.30777654 256.14453125 1273.07421875 C254.64467429 1274.90766911 253.14467185 1276.74100046 251.64453125 1278.57421875 C250.90203125 1279.48171875 250.15953125 1280.38921875 249.39453125 1281.32421875 C224.64453125 1311.57421875 224.64453125 1311.57421875 222.375 1314.34765625 C220.9395319 1316.10239659 219.50459329 1317.8575703 218.0703125 1319.61328125 C212.83247962 1326.02260725 207.57275906 1332.41365071 202.30908203 1338.80175781 C197.57466362 1344.54876937 192.85527096 1350.30777654 188.14453125 1356.07421875 C186.64467429 1357.90766911 185.14467185 1359.74100046 183.64453125 1361.57421875 C182.90203125 1362.48171875 182.15953125 1363.38921875 181.39453125 1364.32421875 C156.64453125 1394.57421875 156.64453125 1394.57421875 154.375 1397.34765625 C152.9395319 1399.10239659 151.50459329 1400.8575703 150.0703125 1402.61328125 C144.83247962 1409.02260725 139.57275906 1415.41365071 134.30908203 1421.80175781 C129.57466362 1427.54876937 124.85527096 1433.30777654 120.14453125 1439.07421875 C118.64467429 1440.90766911 117.14467185 1442.74100046 115.64453125 1444.57421875 C114.90203125 1445.48171875 114.15953125 1446.38921875 113.39453125 1447.32421875 C97.64453125 1466.57421875 97.64453125 1466.57421875 95.375 1469.34765625 C93.9395319 1471.10239659 92.50459329 1472.8575703 91.0703125 1474.61328125 C85.83247962 1481.02260725 80.57275906 1487.41365071 75.30908203 1493.80175781 C70.57466362 1499.54876937 65.85527096 1505.30777654 61.14453125 1511.07421875 C59.64467429 1512.90766911 58.14467185 1514.74100046 56.64453125 1516.57421875 C55.90203125 1517.48171875 55.15953125 1518.38921875 54.39453125 1519.32421875 C29.64453125 1549.57421875 29.64453125 1549.57421875 27.39453125 1552.3203125 C25.88942172 1554.16250386 24.38944493 1556.00890025 22.89453125 1557.859375 C17.83190308 1564.10855664 12.68534608 1570.24126958 7.14453125 1576.07421875 C6.48324219 1576.77417969 5.82195313 1577.47414063 5.140625 1578.1953125 C-8.35045636 1591.32799701 -25.92876744 1595.59853439 -44.21069336 1595.49438477 C-62.69788922 1595.02351714 -78.4671572 1587.86428525 -91.85546875 1575.07421875 C-94.56343157 1572.08146127 -97.05628379 1568.95641125 -99.52587891 1565.765625 C-102.23752417 1562.31606965 -105.05814141 1558.95432262 -107.85546875 1555.57421875 C-109.06813484 1554.10321608 -110.28038254 1552.6318684 -111.4921875 1551.16015625 C-112.06888184 1550.45987305 -112.64557617 1549.75958984 -113.23974609 1549.03808594 C-116.78827894 1544.72494025 -120.32192554 1540.39964829 -123.85546875 1536.07421875 C-125.35532571 1534.24076839 -126.85532815 1532.40743704 -128.35546875 1530.57421875 C-146.35546875 1508.57421875 -164.35546875 1486.57421875 -182.35546875 1464.57421875 C-183.10441406 1463.65898437 -183.85335937 1462.74375 -184.625 1461.80078125 C-186.0604681 1460.04604091 -187.49540671 1458.2908672 -188.9296875 1456.53515625 C-193.55870693 1450.87081085 -198.20360781 1445.21981322 -202.85546875 1439.57421875 C-208.20232079 1433.08516874 -213.53603193 1426.58577042 -218.85546875 1420.07421875 C-220.35532571 1418.24076839 -221.85532815 1416.40743704 -223.35546875 1414.57421875 C-225.54772021 1411.89521955 -227.73966343 1409.21597667 -229.9296875 1406.53515625 C-234.55870693 1400.87081085 -239.20360781 1395.21981322 -243.85546875 1389.57421875 C-249.20232079 1383.08516874 -254.53603193 1376.58577042 -259.85546875 1370.07421875 C-261.35532571 1368.24076839 -262.85532815 1366.40743704 -264.35546875 1364.57421875 C-276.35546875 1349.90755208 -288.35546875 1335.24088542 -300.35546875 1320.57421875 C-301.47888672 1319.20136719 -301.47888672 1319.20136719 -302.625 1317.80078125 C-304.0604681 1316.04604091 -305.49540671 1314.2908672 -306.9296875 1312.53515625 C-311.55870693 1306.87081085 -316.20360781 1301.21981322 -320.85546875 1295.57421875 C-326.20232079 1289.08516874 -331.53603193 1282.58577042 -336.85546875 1276.07421875 C-338.35532571 1274.24076839 -339.85532815 1272.40743704 -341.35546875 1270.57421875 C-356.35546875 1252.24088542 -371.35546875 1233.90755208 -386.35546875 1215.57421875 C-387.47888672 1214.20136719 -387.47888672 1214.20136719 -388.625 1212.80078125 C-390.0604681 1211.04604091 -391.49540671 1209.2908672 -392.9296875 1207.53515625 C-397.55870693 1201.87081085 -402.20360781 1196.21981322 -406.85546875 1190.57421875 C-412.20232079 1184.08516874 -417.53603193 1177.58577042 -422.85546875 1171.07421875 C-424.35532571 1169.24076839 -425.85532815 1167.40743704 -427.35546875 1165.57421875 C-439.35546875 1150.90755208 -451.35546875 1136.24088542 -463.35546875 1121.57421875 C-464.10441406 1120.65898437 -464.85335938 1119.74375 -465.625 1118.80078125 C-467.0604681 1117.04604091 -468.49540671 1115.2908672 -469.9296875 1113.53515625 C-474.55870693 1107.87081085 -479.20360781 1102.21981322 -483.85546875 1096.57421875 C-489.20232079 1090.08516874 -494.53603193 1083.58577042 -499.85546875 1077.07421875 C-501.35532571 1075.24076839 -502.85532815 1073.40743704 -504.35546875 1071.57421875 C-516.35546875 1056.90755208 -528.35546875 1042.24088542 -540.35546875 1027.57421875 C-541.10441406 1026.65898437 -541.85335938 1025.74375 -542.625 1024.80078125 C-544.0604681 1023.04604091 -545.49540671 1021.2908672 -546.9296875 1019.53515625 C-551.55870693 1013.87081085 -556.20360781 1008.21981322 -560.85546875 1002.57421875 C-566.20232079 996.08516874 -571.53603193 989.58577042 -576.85546875 983.07421875 C-578.35532571 981.24076839 -579.85532815 979.40743704 -581.35546875 977.57421875 C-599.35546875 955.57421875 -617.35546875 933.57421875 -635.35546875 911.57421875 C-636.10441406 910.65898437 -636.85335938 909.74375 -637.625 908.80078125 C-639.0604681 907.04604091 -640.49540671 905.2908672 -641.9296875 903.53515625 C-646.5587074 897.87081027 -651.20371657 892.21990335 -655.85546875 886.57421875 C-666.76976196 873.32373157 -666.76976196 873.32373157 -669.58203125 869.86328125 C-671.29369879 867.76340045 -673.01890996 865.67807144 -674.75390625 863.59765625 C-695.17750014 838.89702248 -705.47142122 811.13239721 -702.65332031 778.75146484 C-700.12162475 757.26071323 -690.44300233 738.67626403 -676.85546875 722.07421875 C-676.30375 721.3977832 -675.75203125 720.72134766 -675.18359375 720.02441406 C-671.62576341 715.66961399 -668.04508444 711.33414947 -664.45507812 707.00585938 C-662.30719245 704.41213663 -660.1738458 701.80693542 -658.04296875 699.19921875 C-657.34558594 698.34585938 -656.64820313 697.4925 -655.9296875 696.61328125 C-655.24519531 695.77539062 -654.56070312 694.9375 -653.85546875 694.07421875 C-652.35561179 692.24076839 -650.85560935 690.40743704 -649.35546875 688.57421875 C-648.61296875 687.66671875 -647.87046875 686.75921875 -647.10546875 685.82421875 C-622.35546875 655.57421875 -622.35546875 655.57421875 -620.0859375 652.80078125 C-618.6504694 651.04604091 -617.21553079 649.2908672 -615.78125 647.53515625 C-610.54341712 641.12583025 -605.28369656 634.73478679 -600.02001953 628.34667969 C-595.28560112 622.59966813 -590.56620846 616.84066096 -585.85546875 611.07421875 C-584.35561179 609.24076839 -582.85560935 607.40743704 -581.35546875 605.57421875 C-580.24171875 604.21296875 -580.24171875 604.21296875 -579.10546875 602.82421875 C-545.35546875 561.57421875 -545.35546875 561.57421875 -543.0859375 558.80078125 C-541.6504694 557.04604091 -540.21553079 555.2908672 -538.78125 553.53515625 C-533.54341712 547.12583025 -528.28369656 540.73478679 -523.02001953 534.34667969 C-518.28560112 528.59966813 -513.56620846 522.84066096 -508.85546875 517.07421875 C-507.35561179 515.24076839 -505.85560935 513.40743704 -504.35546875 511.57421875 C-503.61296875 510.66671875 -502.87046875 509.75921875 -502.10546875 508.82421875 C-459.35546875 456.57421875 -459.35546875 456.57421875 -457.0859375 453.80078125 C-455.6504694 452.04604091 -454.21553079 450.2908672 -452.78125 448.53515625 C-447.54341712 442.12583025 -442.28369656 435.73478679 -437.02001953 429.34667969 C-432.28560112 423.59966813 -427.56620846 417.84066096 -422.85546875 412.07421875 C-421.35561179 410.24076839 -419.85560935 408.40743704 -418.35546875 406.57421875 C-417.61296875 405.66671875 -416.87046875 404.75921875 -416.10546875 403.82421875 C-373.35546875 351.57421875 -373.35546875 351.57421875 -371.0859375 348.80078125 C-369.6504694 347.04604091 -368.21553079 345.2908672 -366.78125 343.53515625 C-361.54341712 337.12583025 -356.28369656 330.73478679 -351.02001953 324.34667969 C-346.28560112 318.59966813 -341.56620846 312.84066096 -336.85546875 307.07421875 C-335.35561179 305.24076839 -333.85560935 303.40743704 -332.35546875 301.57421875 C-331.61296875 300.66671875 -330.87046875 299.75921875 -330.10546875 298.82421875 C-296.35546875 257.57421875 -296.35546875 257.57421875 -294.0859375 254.80078125 C-292.6504694 253.04604091 -291.21553079 251.2908672 -289.78125 249.53515625 C-284.54341712 243.12583025 -279.28369656 236.73478679 -274.02001953 230.34667969 C-269.28560112 224.59966813 -264.56620846 218.84066096 -259.85546875 213.07421875 C-258.35561179 211.24076839 -256.85560935 209.40743704 -255.35546875 207.57421875 C-254.24171875 206.21296875 -254.24171875 206.21296875 -253.10546875 204.82421875 C-210.35546875 152.57421875 -210.35546875 152.57421875 -208.0859375 149.80078125 C-206.6504694 148.04604091 -205.21553079 146.2908672 -203.78125 144.53515625 C-198.54341712 138.12583025 -193.28369656 131.73478679 -188.02001953 125.34667969 C-183.28560112 119.59966813 -178.56620846 113.84066096 -173.85546875 108.07421875 C-172.35561179 106.24076839 -170.85560935 104.40743704 -169.35546875 102.57421875 C-168.61296875 101.66671875 -167.87046875 100.75921875 -167.10546875 99.82421875 C-160.35546875 91.57421875 -160.35546875 91.57421875 -158.0859375 88.80078125 C-156.6504694 87.04604091 -155.21553079 85.2908672 -153.78125 83.53515625 C-148.54341712 77.12583025 -143.28369656 70.73478679 -138.02001953 64.34667969 C-133.28560112 58.59966813 -128.56620846 52.84066096 -123.85546875 47.07421875 C-122.35561179 45.24076839 -120.85560935 43.40743704 -119.35546875 41.57421875 C-118.61296875 40.66671875 -117.87046875 39.75921875 -117.10546875 38.82421875 C-110.35546875 30.57421875 -110.35546875 30.57421875 -108.10546875 27.828125 C-106.60035922 25.98593364 -105.10038243 24.13953725 -103.60546875 22.2890625 C-77.06200226 -10.47552895 -37.87247385 -25.54190097 0 0 Z " fill="#000000" transform="translate(1728.85546875,1739.92578125)"/>
<path d="M0 0 C8.67076788 7.54803194 16.16810907 16.32326759 23.26171875 25.33984375 C26.85876413 29.90315427 30.56868873 34.37503442 34.25390625 38.8671875 C35.6498739 40.57541108 37.04570523 42.28374607 38.44140625 43.9921875 C42.36836136 48.79256345 46.30997593 53.58075225 50.25390625 58.3671875 C55.60075829 64.85623751 60.93446943 71.35563583 66.25390625 77.8671875 C67.75376321 79.70063786 69.25376565 81.53396921 70.75390625 83.3671875 C85.75390625 101.70052083 100.75390625 120.03385417 115.75390625 138.3671875 C116.50285156 139.28242188 117.25179687 140.19765625 118.0234375 141.140625 C119.4589056 142.89536534 120.89384421 144.65053905 122.328125 146.40625 C126.95714443 152.0705954 131.60204531 157.72159303 136.25390625 163.3671875 C141.60075829 169.85623751 146.93446943 176.35563583 152.25390625 182.8671875 C153.75376321 184.70063786 155.25376565 186.53396921 156.75390625 188.3671875 C168.75390625 203.03385417 180.75390625 217.70052083 192.75390625 232.3671875 C193.50285156 233.28242188 194.25179687 234.19765625 195.0234375 235.140625 C196.4589056 236.89536534 197.89384421 238.65053905 199.328125 240.40625 C203.95714443 246.0705954 208.60204531 251.72159303 213.25390625 257.3671875 C218.60075829 263.85623751 223.93446943 270.35563583 229.25390625 276.8671875 C230.75376321 278.70063786 232.25376565 280.53396921 233.75390625 282.3671875 C245.75390625 297.03385417 257.75390625 311.70052083 269.75390625 326.3671875 C270.50285156 327.28242188 271.25179687 328.19765625 272.0234375 329.140625 C273.4589056 330.89536534 274.89384421 332.65053905 276.328125 334.40625 C281.56957737 340.82000503 286.83281767 347.21556103 292.1003418 353.60791016 C296.02643463 358.37345491 299.94089489 363.14827807 303.84765625 367.9296875 C306.97566782 371.74829903 310.11476917 375.55772034 313.25390625 379.3671875 C318.60078198 385.85621787 323.93446954 392.35563597 329.25390625 398.8671875 C330.75376321 400.70063786 332.25376565 402.53396921 333.75390625 404.3671875 C354.75390625 430.03385417 375.75390625 455.70052083 396.75390625 481.3671875 C397.50285156 482.28242187 398.25179687 483.19765625 399.0234375 484.140625 C400.4589056 485.89536534 401.89384421 487.65053905 403.328125 489.40625 C407.95714443 495.0705954 412.60204531 500.72159303 417.25390625 506.3671875 C422.60075829 512.85623751 427.93446943 519.35563583 433.25390625 525.8671875 C434.75376321 527.70063786 436.25376565 529.53396921 437.75390625 531.3671875 C455.75390625 553.3671875 473.75390625 575.3671875 491.75390625 597.3671875 C492.50285156 598.28242187 493.25179687 599.19765625 494.0234375 600.140625 C495.4589056 601.89536534 496.89384421 603.65053905 498.328125 605.40625 C502.95714443 611.0705954 507.60204531 616.72159303 512.25390625 622.3671875 C517.60075829 628.85623751 522.93446943 635.35563583 528.25390625 641.8671875 C529.75376321 643.70063786 531.25376565 645.53396921 532.75390625 647.3671875 C577.75390625 702.3671875 577.75390625 702.3671875 580.0078125 705.125 C581.49081676 706.93555477 582.97772544 708.74291936 584.46875 710.546875 C586.74578278 713.3081274 588.99959032 716.08737225 591.25390625 718.8671875 C592.05828125 719.82882812 592.86265625 720.79046875 593.69140625 721.78125 C604.80222013 735.49616089 612.25262156 750.69136721 616.25390625 767.8671875 C616.49753906 768.87652344 616.74117187 769.88585937 616.9921875 770.92578125 C622.1854404 796.39745025 615.98409885 824.0861911 602.25390625 845.8671875 C599.12214687 850.37692101 595.74247181 854.63428692 592.25390625 858.8671875 C591.10931522 860.26818033 589.96478731 861.66922473 588.8203125 863.0703125 C585.84418565 866.7027424 582.85143997 870.32110024 579.85351562 873.93554688 C577.70562995 876.52926962 575.5722833 879.13447083 573.44140625 881.7421875 C572.74402344 882.59554687 572.04664062 883.44890625 571.328125 884.328125 C570.64363281 885.16601562 569.95914063 886.00390625 569.25390625 886.8671875 C566.99768185 889.62523414 564.74102608 892.38292747 562.484375 895.140625 C561.0489069 896.89536534 559.61396829 898.65053905 558.1796875 900.40625 C552.94185462 906.815576 547.68213406 913.20661946 542.41845703 919.59472656 C537.68403862 925.34173812 532.96464596 931.10074529 528.25390625 936.8671875 C526.75404929 938.70063786 525.25404685 940.53396921 523.75390625 942.3671875 C523.01140625 943.2746875 522.26890625 944.1821875 521.50390625 945.1171875 C487.75390625 986.3671875 487.75390625 986.3671875 485.484375 989.140625 C484.0489069 990.89536534 482.61396829 992.65053905 481.1796875 994.40625 C475.94185462 1000.815576 470.68213406 1007.20661946 465.41845703 1013.59472656 C460.68403862 1019.34173812 455.96464596 1025.10074529 451.25390625 1030.8671875 C449.75404929 1032.70063786 448.25404685 1034.53396921 446.75390625 1036.3671875 C446.01140625 1037.2746875 445.26890625 1038.1821875 444.50390625 1039.1171875 C410.75390625 1080.3671875 410.75390625 1080.3671875 408.484375 1083.140625 C407.0489069 1084.89536534 405.61396829 1086.65053905 404.1796875 1088.40625 C398.94185462 1094.815576 393.68213406 1101.20661946 388.41845703 1107.59472656 C383.68403862 1113.34173812 378.96464596 1119.10074529 374.25390625 1124.8671875 C372.75404929 1126.70063786 371.25404685 1128.53396921 369.75390625 1130.3671875 C369.01140625 1131.2746875 368.26890625 1132.1821875 367.50390625 1133.1171875 C324.75390625 1185.3671875 324.75390625 1185.3671875 322.484375 1188.140625 C321.0489069 1189.89536534 319.61396829 1191.65053905 318.1796875 1193.40625 C312.94185462 1199.815576 307.68213406 1206.20661946 302.41845703 1212.59472656 C297.68403862 1218.34173812 292.96464596 1224.10074529 288.25390625 1229.8671875 C286.75404929 1231.70063786 285.25404685 1233.53396921 283.75390625 1235.3671875 C283.01140625 1236.2746875 282.26890625 1237.1821875 281.50390625 1238.1171875 C247.75390625 1279.3671875 247.75390625 1279.3671875 245.484375 1282.140625 C244.0489069 1283.89536534 242.61396829 1285.65053905 241.1796875 1287.40625 C235.94185462 1293.815576 230.68213406 1300.20661946 225.41845703 1306.59472656 C220.68403862 1312.34173812 215.96464596 1318.10074529 211.25390625 1323.8671875 C209.75404929 1325.70063786 208.25404685 1327.53396921 206.75390625 1329.3671875 C206.01140625 1330.2746875 205.26890625 1331.1821875 204.50390625 1332.1171875 C179.75390625 1362.3671875 179.75390625 1362.3671875 177.484375 1365.140625 C176.0489069 1366.89536534 174.61396829 1368.65053905 173.1796875 1370.40625 C167.94185462 1376.815576 162.68213406 1383.20661946 157.41845703 1389.59472656 C152.68403862 1395.34173812 147.96464596 1401.10074529 143.25390625 1406.8671875 C141.75404929 1408.70063786 140.25404685 1410.53396921 138.75390625 1412.3671875 C138.01140625 1413.2746875 137.26890625 1414.1821875 136.50390625 1415.1171875 C102.75390625 1456.3671875 102.75390625 1456.3671875 100.484375 1459.140625 C99.0489069 1460.89536534 97.61396829 1462.65053905 96.1796875 1464.40625 C90.94185462 1470.815576 85.68213406 1477.20661946 80.41845703 1483.59472656 C75.68403862 1489.34173812 70.96464596 1495.10074529 66.25390625 1500.8671875 C64.75404929 1502.70063786 63.25404685 1504.53396921 61.75390625 1506.3671875 C61.01140625 1507.2746875 60.26890625 1508.1821875 59.50390625 1509.1171875 C25.75390625 1550.3671875 25.75390625 1550.3671875 23.50390625 1553.11328125 C21.99879672 1554.95547261 20.49881993 1556.801869 19.00390625 1558.65234375 C16.77259941 1561.40661314 14.51807543 1564.13989281 12.25390625 1566.8671875 C11.5578125 1567.72441406 10.86171875 1568.58164063 10.14453125 1569.46484375 C-1.67461642 1583.4192024 -18.41634429 1592.340061 -36.71972656 1594.05175781 C-56.05460417 1595.32246608 -74.4731078 1589.75146081 -89.37890625 1577.09375 C-96.12885527 1570.74478805 -102.03246972 1563.66695961 -107.75390625 1556.39453125 C-111.35094467 1551.83122957 -115.06058911 1547.35909316 -118.74609375 1542.8671875 C-120.24637692 1541.03408588 -121.74637783 1539.20075323 -123.24609375 1537.3671875 C-123.98859375 1536.4596875 -124.73109375 1535.5521875 -125.49609375 1534.6171875 C-133.74609375 1524.53385417 -141.99609375 1514.45052083 -150.24609375 1504.3671875 C-150.99503906 1503.45195313 -151.74398437 1502.53671875 -152.515625 1501.59375 C-153.9510931 1499.83900966 -155.38603171 1498.08383595 -156.8203125 1496.328125 C-161.44933193 1490.6637796 -166.09423281 1485.01278197 -170.74609375 1479.3671875 C-176.78145994 1472.0425425 -182.79703604 1464.7021555 -188.80078125 1457.3515625 C-193.43672748 1451.6797455 -198.08776583 1446.02063042 -202.74609375 1440.3671875 C-208.09294579 1433.87813749 -213.42665693 1427.37873917 -218.74609375 1420.8671875 C-220.24595071 1419.03373714 -221.74595315 1417.20040579 -223.24609375 1415.3671875 C-241.24609375 1393.3671875 -259.24609375 1371.3671875 -277.24609375 1349.3671875 C-278.36951172 1347.99433594 -278.36951172 1347.99433594 -279.515625 1346.59375 C-280.9510931 1344.83900966 -282.38603171 1343.08383595 -283.8203125 1341.328125 C-288.44933193 1335.6637796 -293.09423281 1330.01278197 -297.74609375 1324.3671875 C-303.09294579 1317.87813749 -308.42665693 1311.37873917 -313.74609375 1304.8671875 C-315.24595071 1303.03373714 -316.74595315 1301.20040579 -318.24609375 1299.3671875 C-336.24609375 1277.3671875 -354.24609375 1255.3671875 -372.24609375 1233.3671875 C-373.36951172 1231.99433594 -373.36951172 1231.99433594 -374.515625 1230.59375 C-375.9510931 1228.83900966 -377.38603171 1227.08383595 -378.8203125 1225.328125 C-383.44933193 1219.6637796 -388.09423281 1214.01278197 -392.74609375 1208.3671875 C-398.09294579 1201.87813749 -403.42665693 1195.37873917 -408.74609375 1188.8671875 C-410.24595071 1187.03373714 -411.74595315 1185.20040579 -413.24609375 1183.3671875 C-428.24609375 1165.03385417 -443.24609375 1146.70052083 -458.24609375 1128.3671875 C-458.99503906 1127.45195313 -459.74398438 1126.53671875 -460.515625 1125.59375 C-461.9510931 1123.83900966 -463.38603171 1122.08383595 -464.8203125 1120.328125 C-469.44933193 1114.6637796 -474.09423281 1109.01278197 -478.74609375 1103.3671875 C-484.09294579 1096.87813749 -489.42665693 1090.37873917 -494.74609375 1083.8671875 C-496.24595071 1082.03373714 -497.74595315 1080.20040579 -499.24609375 1078.3671875 C-511.24609375 1063.70052083 -523.24609375 1049.03385417 -535.24609375 1034.3671875 C-535.99503906 1033.45195313 -536.74398438 1032.53671875 -537.515625 1031.59375 C-538.9510931 1029.83900966 -540.38603171 1028.08383595 -541.8203125 1026.328125 C-546.44933193 1020.6637796 -551.09423281 1015.01278197 -555.74609375 1009.3671875 C-561.09294579 1002.87813749 -566.42665693 996.37873917 -571.74609375 989.8671875 C-573.24595071 988.03373714 -574.74595315 986.20040579 -576.24609375 984.3671875 C-591.24609375 966.03385417 -606.24609375 947.70052083 -621.24609375 929.3671875 C-621.99503906 928.45195313 -622.74398438 927.53671875 -623.515625 926.59375 C-624.9510931 924.83900966 -626.38603171 923.08383595 -627.8203125 921.328125 C-632.44933193 915.6637796 -637.09423281 910.01278197 -641.74609375 904.3671875 C-647.09294579 897.87813749 -652.42665693 891.37873917 -657.74609375 884.8671875 C-659.24595071 883.03373714 -660.74595315 881.20040579 -662.24609375 879.3671875 C-662.99117187 878.45582031 -663.73625 877.54445313 -664.50390625 876.60546875 C-665.97501988 874.80886482 -667.44888903 873.01451293 -668.92578125 871.22265625 C-671.21024898 868.44633693 -673.47887693 865.6576082 -675.74609375 862.8671875 C-676.18743652 862.33222656 -676.6287793 861.79726563 -677.08349609 861.24609375 C-697.06307259 836.98768051 -707.55899814 809.31019583 -704.53076172 777.61328125 C-701.20155356 749.36239152 -686.23712561 728.89921793 -668.3046875 707.890625 C-665.36838021 704.42085119 -662.52763919 700.88506251 -659.703125 697.32421875 C-656.09904724 692.79933869 -652.41532285 688.33925647 -648.74609375 683.8671875 C-647.24581058 682.03408588 -645.74580967 680.20075323 -644.24609375 678.3671875 C-599.24609375 623.3671875 -599.24609375 623.3671875 -596.9765625 620.59375 C-595.5410944 618.83900966 -594.10615579 617.08383595 -592.671875 615.328125 C-587.43404212 608.918799 -582.17432156 602.52775554 -576.91064453 596.13964844 C-572.17622612 590.39263688 -567.45683346 584.63362971 -562.74609375 578.8671875 C-561.24623679 577.03373714 -559.74623435 575.20040579 -558.24609375 573.3671875 C-557.50359375 572.4596875 -556.76109375 571.5521875 -555.99609375 570.6171875 C-522.24609375 529.3671875 -522.24609375 529.3671875 -519.9765625 526.59375 C-518.5410944 524.83900966 -517.10615579 523.08383595 -515.671875 521.328125 C-510.43404212 514.918799 -505.17432156 508.52775554 -499.91064453 502.13964844 C-495.17622612 496.39263688 -490.45683346 490.63362971 -485.74609375 484.8671875 C-484.24623679 483.03373714 -482.74623435 481.20040579 -481.24609375 479.3671875 C-480.50359375 478.4596875 -479.76109375 477.5521875 -478.99609375 476.6171875 C-445.24609375 435.3671875 -445.24609375 435.3671875 -442.9765625 432.59375 C-441.5410944 430.83900966 -440.10615579 429.08383595 -438.671875 427.328125 C-433.43404212 420.918799 -428.17432156 414.52775554 -422.91064453 408.13964844 C-418.17622612 402.39263688 -413.45683346 396.63362971 -408.74609375 390.8671875 C-407.24623679 389.03373714 -405.74623435 387.20040579 -404.24609375 385.3671875 C-403.50359375 384.4596875 -402.76109375 383.5521875 -401.99609375 382.6171875 C-377.24609375 352.3671875 -377.24609375 352.3671875 -374.9765625 349.59375 C-373.5410944 347.83900966 -372.10615579 346.08383595 -370.671875 344.328125 C-365.43404212 337.918799 -360.17432156 331.52775554 -354.91064453 325.13964844 C-350.17622612 319.39263688 -345.45683346 313.63362971 -340.74609375 307.8671875 C-339.24623679 306.03373714 -337.74623435 304.20040579 -336.24609375 302.3671875 C-335.50359375 301.4596875 -334.76109375 300.5521875 -333.99609375 299.6171875 C-300.24609375 258.3671875 -300.24609375 258.3671875 -297.9765625 255.59375 C-296.5410944 253.83900966 -295.10615579 252.08383595 -293.671875 250.328125 C-288.43404212 243.918799 -283.17432156 237.52775554 -277.91064453 231.13964844 C-273.17622612 225.39263688 -268.45683346 219.63362971 -263.74609375 213.8671875 C-262.24623679 212.03373714 -260.74623435 210.20040579 -259.24609375 208.3671875 C-258.13234375 207.0059375 -258.13234375 207.0059375 -256.99609375 205.6171875 C-214.24609375 153.3671875 -214.24609375 153.3671875 -211.9765625 150.59375 C-210.5410944 148.83900966 -209.10615579 147.08383595 -207.671875 145.328125 C-202.43404212 138.918799 -197.17432156 132.52775554 -191.91064453 126.13964844 C-187.17622612 120.39263688 -182.45683346 114.63362971 -177.74609375 108.8671875 C-176.24623679 107.03373714 -174.74623435 105.20040579 -173.24609375 103.3671875 C-172.50359375 102.4596875 -171.76109375 101.5521875 -170.99609375 100.6171875 C-137.24609375 59.3671875 -137.24609375 59.3671875 -134.9765625 56.59375 C-133.5410944 54.83900966 -132.10615579 53.08383595 -130.671875 51.328125 C-125.43440499 44.91924303 -120.17705409 38.52696451 -114.91064453 32.1418457 C-112.3181525 28.99733348 -109.72731289 25.8520133 -107.1640625 22.68359375 C-102.21082792 16.56795386 -97.16810051 10.57506456 -91.74609375 4.8671875 C-91.08480469 4.16722656 -90.42351563 3.46726562 -89.7421875 2.74609375 C-65.71181142 -20.64590421 -25.65067663 -19.92214714 0 0 Z " fill="#000000" transform="translate(1730.74609375,54.1328125)"/>
</svg>
